<svg width="18" height="18" viewBox="0 0 24 24" fill="none" xmlns="http://www.w3.org/2000/svg">
<path d="M11.0591 3.50003C11.0591 3.09319 10.8126 2.7269 10.4357 2.57367C10.0589 2.42044 9.6267 2.51081 9.34281 2.80223L1.28371 11.0749C0.912652 11.4558 0.904575 12.0604 1.26533 12.4511L9.32443 21.1785C9.60374 21.4809 10.0399 21.5813 10.4233 21.4313C10.8068 21.2814 11.0591 20.9117 11.0591 20.5V16.0313C12.393 15.908 13.7966 15.9987 15.2746 16.3124C16.8177 16.6398 18.8035 18.0942 21.2264 21.0518C21.506 21.3931 21.9762 21.5108 22.3836 21.3416C22.791 21.1723 23.0394 20.7561 22.9949 20.3172C22.6329 16.7472 21.2608 13.7239 18.8665 11.2976C16.6921 9.09408 14.0758 7.86503 11.0591 7.62626V3.50003Z" fill="black" fill-opacity="0.65"/>
</svg>
