<svg width="28" height="31" viewBox="0 0 28 31" fill="none" xmlns="http://www.w3.org/2000/svg">
<path fill-rule="evenodd" clip-rule="evenodd" d="M18.3445 11.6555C17.1731 12.7487 15.6325 13.3601 14.0302 13.3677C12.4278 13.3753 10.8815 12.7785 9.69976 11.6964C8.51798 10.6143 7.78759 9.12648 7.65431 7.52968C7.52102 5.93289 7.99464 4.34454 8.98067 3.0815C9.96671 1.81847 11.3927 0.973597 12.9741 0.715441C14.5555 0.457284 16.1761 0.80482 17.5126 1.68872C18.8491 2.57261 19.8033 3.92789 20.1847 5.48418C20.5661 7.04046 20.3468 8.68335 19.5705 10.0851L17.3423 8.85105C17.8081 8.01001 17.9397 7.02428 17.7108 6.09051C17.482 5.15674 16.9095 4.34357 16.1076 3.81323C15.3057 3.2829 14.3333 3.07437 13.3844 3.22927C12.4356 3.38416 11.58 3.89108 10.9884 4.64891C10.3968 5.40673 10.1126 6.35974 10.1926 7.31781C10.2726 8.27589 10.7108 9.1686 11.4199 9.81786C12.1289 10.4671 13.0567 10.8252 14.0181 10.8206C14.9795 10.8161 15.9038 10.4492 16.6067 9.79329L18.3445 11.6555ZM20.495 16.4156C22.3824 16.8495 24.1869 17.5503 25.2409 18.684C26.7921 20.3525 27.225 22.4936 27.2489 24.3088C27.273 26.133 26.8881 27.7885 26.6344 28.6804C26.3536 29.6674 25.4521 30.25 24.525 30.25H24.4776H24.4302H24.3829H24.3356H24.2885H24.2414H24.1944H24.1475H24.1006H24.0538H24.0071H23.9604H23.9139H23.8674H23.8209H23.7746H23.7283H23.6821H23.6359H23.5898H23.5438H23.4978H23.452H23.4062H23.3604H23.3147H23.2691H23.2236H23.1781H23.1327H23.0873H23.0421H22.9969H22.9517H22.9066H22.8616H22.8167H22.7718H22.7269H22.6822H22.6375H22.5928H22.5483H22.5037H22.4593H22.4149H22.3706H22.3263H22.2821H22.2379H22.1939H22.1498H22.1059H22.062H22.0181H21.9743H21.9306H21.8869H21.8433H21.7997H21.7562H21.7128H21.6694H21.6261H21.5828H21.5396H21.4964H21.4533H21.4102H21.3672H21.3243H21.2814H21.2386H21.1958H21.153H21.1104H21.0677H21.0252H20.9826H20.9402H20.8977H20.8554H20.8131H20.7708H20.7286H20.6864H20.6443H20.6022H20.5602H20.5182H20.4763H20.4344H20.3926H20.3508H20.3091H20.2674H20.2258H20.1842H20.1426H20.1011H20.0597H20.0183H19.9769H19.9356H19.8943H19.8531H19.8119H19.7708H19.7297H19.6886H19.6476H19.6066H19.5657H19.5248H19.4839H19.4431H19.4024H19.3616H19.321H19.2803H19.2397H19.1992H19.1586H19.1181H19.0777H19.0373H18.9969H18.9566H18.9163H18.876H18.8358H18.7956H18.7554H18.7153H18.6752H18.6352H18.5952H18.5552H18.5153H18.4754H18.4355H18.3957H18.3559H18.3161H18.2763H18.2366H18.197H18.1573H18.1177H18.0781H18.0386H17.9991H17.9596H17.9201H17.8807H17.8413H17.8019H17.7626H17.7232H17.684H17.6447H17.6055H17.5663H17.5271H17.4879H17.4488H17.4097H17.3707H17.3316H17.2926H17.2536H17.2146H17.1757H17.1368H17.0979H17.059H17.0202H16.9813H16.9425H16.9038H16.865H16.8263H16.7875H16.7489H16.7102H16.6715H16.6329H16.5943H16.5557H16.5171H16.4786H16.44H16.4015H16.363H16.3245H16.2861H16.2476H16.2092H16.1708H16.1324H16.094H16.0557H16.0173H15.979H15.9407H15.9024H15.8641H15.8258H15.7876H15.7493H15.7111H15.6729H15.6347H15.5965H15.5583H15.5202H15.482H15.4439H15.4057H15.3676H15.3295H15.2914H15.2533H15.2152H15.1772H15.1391H15.101H15.063H15.025H14.9869H14.9489H14.9109H14.8729H14.8349H14.7969H14.7589H14.7209H14.683H14.645H14.607H14.5691H14.5311H14.4931H14.4552H14.4172H14.3793H14.3414H14.3034H14.2655H14.2276H14.1896H14.1517H14.1138H14.0758H14.0379H14H13.9621H13.9241H13.8862H13.8483H13.8103H13.7724H13.7345H13.6966H13.6586H13.6207H13.5827H13.5448H13.5068H13.4689H13.4309H13.393H13.355H13.317H13.279H13.2411H13.2031H13.1651H13.1271H13.0891H13.0511H13.013H12.975H12.937H12.8989H12.8609H12.8228H12.7847H12.7467H12.7086H12.6705H12.6324H12.5942H12.5561H12.518H12.4798H12.4416H12.4035H12.3653H12.3271H12.2889H12.2506H12.2124H12.1741H12.1359H12.0976H12.0593H12.021H11.9826H11.9443H11.9059H11.8676H11.8292H11.7908H11.7523H11.7139H11.6754H11.637H11.5985H11.5599H11.5214H11.4829H11.4443H11.4057H11.3671H11.3284H11.2898H11.2511H11.2124H11.1737H11.135H11.0962H11.0574H11.0186H10.9798H10.941H10.9021H10.8632H10.8243H10.7853H10.7464H10.7074H10.6684H10.6293H10.5902H10.5511H10.512H10.4729H10.4337H10.3945H10.3553H10.316H10.2767H10.2374H10.1981H10.1587H10.1193H10.0799H10.0404H10.0009H9.96141H9.92186H9.88228H9.84266H9.80302H9.76334H9.72364H9.6839H9.64412H9.60432H9.56448H9.5246H9.4847H9.44476H9.40478H9.36477H9.32473H9.28465H9.24453H9.20438H9.16419H9.12397H9.08371H9.04341H9.00307H8.9627H8.92229H8.88184H8.84135H8.80083H8.76026H8.71966H8.67901H8.63833H8.5976H8.55684H8.51603H8.47518H8.4343H8.39336H8.35239H8.31138H8.27032H8.22922H8.18808H8.14689H8.10566H8.06438H8.02306H7.9817H7.94029H7.89884H7.85734H7.81579H7.7742H7.73256H7.69088H7.64915H7.60737H7.56554H7.52367H7.48175H7.43978H7.39776H7.35569H7.31357H7.2714H7.22919H7.18692H7.1446H7.10223H7.05981H7.01734H6.97482H6.93225H6.88962H6.84694H6.80421H6.76142H6.71858H6.67569H6.63274H6.58974H6.54669H6.50358H6.46041H6.41719H6.37392H6.33058H6.2872H6.24375H6.20025H6.15669H6.11307H6.0694H6.02567H5.98187H5.93803H5.89412H5.85015H5.80612H5.76204H5.71789H5.67368H5.62941H5.58508H5.54069H5.49624H5.45173H5.40715H5.36251H5.31781H5.27305H5.22822H5.18333H5.13837H5.09335H5.04827H5.00312H4.95791H4.91263H4.86728H4.82187H4.7764H4.73085H4.68524H4.63957H4.59382H4.54801H4.50213H4.45618H4.41017H4.36408H4.31792H4.2717H4.22541H4.17904H4.13261H4.0861H4.03953H3.99288H3.94616H3.89937H3.85251H3.80557H3.75856H3.71148H3.66433H3.6171H3.5698H3.52243H3.47498C2.54785 30.25 1.64636 29.6674 1.36559 28.6804C1.1119 27.7885 0.72704 26.133 0.751083 24.3089C0.775007 22.4937 1.20796 20.3526 2.75907 18.6841C3.81312 17.5503 5.61767 16.8495 7.50502 16.4156C9.4544 15.9674 11.7398 15.75 14 15.75C16.2602 15.75 18.5456 15.9674 20.495 16.4156ZM8.06519 18.852C6.2769 19.2632 5.10728 19.83 4.59006 20.3863C3.62805 21.4211 3.27055 22.848 3.25087 24.3418C3.23322 25.6805 3.49027 26.9457 3.70266 27.75H3.71148H3.75856H3.80557H3.85251H3.89937H3.94616H3.99288H4.03953H4.0861H4.13261H4.17904H4.22541H4.2717H4.31792H4.36408H4.41017H4.45618H4.50213H4.54801H4.59382H4.63957H4.68524H4.73085H4.7764H4.82187H4.86728H4.91263H4.95791H5.00312H5.04827H5.09335H5.13837H5.18333H5.22822H5.27305H5.31781H5.36251H5.40715H5.45173H5.49624H5.54069H5.58508H5.62941H5.67368H5.71789H5.76204H5.80612H5.85015H5.89412H5.93803H5.98187H6.02567H6.0694H6.11307H6.15669H6.20025H6.24375H6.2872H6.33058H6.37392H6.41719H6.46041H6.50358H6.54669H6.58974H6.63274H6.67569H6.71858H6.76142H6.80421H6.84694H6.88962H6.93225H6.97482H7.01734H7.05981H7.10223H7.1446H7.18692H7.22919H7.2714H7.31357H7.35569H7.39776H7.43978H7.48175H7.52367H7.56554H7.60737H7.64915H7.69088H7.73256H7.7742H7.81579H7.85734H7.89884H7.94029H7.9817H8.02306H8.06438H8.10566H8.14689H8.18808H8.22922H8.27032H8.31138H8.35239H8.39336H8.4343H8.47518H8.51603H8.55684H8.5976H8.63833H8.67901H8.71966H8.76026H8.80083H8.84135H8.88184H8.92229H8.9627H9.00307H9.04341H9.08371H9.12397H9.16419H9.20438H9.24453H9.28465H9.32473H9.36477H9.40478H9.44476H9.4847H9.5246H9.56448H9.60432H9.64412H9.6839H9.72364H9.76334H9.80302H9.84266H9.88228H9.92186H9.96141H10.0009H10.0404H10.0799H10.1193H10.1587H10.1981H10.2374H10.2767H10.316H10.3553H10.3945H10.4337H10.4729H10.512H10.5511H10.5902H10.6293H10.6684H10.7074H10.7464H10.7853H10.8243H10.8632H10.9021H10.941H10.9798H11.0186H11.0574H11.0962H11.135H11.1737H11.2124H11.2511H11.2898H11.3284H11.3671H11.4057H11.4443H11.4829H11.5214H11.5599H11.5985H11.637H11.6754H11.7139H11.7523H11.7908H11.8292H11.8676H11.9059H11.9443H11.9826H12.021H12.0593H12.0976H12.1359H12.1741H12.2124H12.2506H12.2889H12.3271H12.3653H12.4035H12.4416H12.4798H12.518H12.5561H12.5942H12.6324H12.6705H12.7086H12.7467H12.7847H12.8228H12.8609H12.8989H12.937H12.975H13.013H13.0511H13.0891H13.1271H13.1651H13.2031H13.2411H13.279H13.317H13.355H13.393H13.4309H13.4689H13.5068H13.5448H13.5827H13.6207H13.6586H13.6966H13.7345H13.7724H13.8103H13.8483H13.8862H13.9241H13.9621H14H14.0379H14.0758H14.1138H14.1517H14.1896H14.2276H14.2655H14.3034H14.3414H14.3793H14.4172H14.4552H14.4931H14.5311H14.5691H14.607H14.645H14.683H14.7209H14.7589H14.7969H14.8349H14.8729H14.9109H14.9489H14.9869H15.025H15.063H15.101H15.1391H15.1772H15.2152H15.2533H15.2914H15.3295H15.3676H15.4057H15.4439H15.482H15.5202H15.5583H15.5965H15.6347H15.6729H15.7111H15.7493H15.7876H15.8258H15.8641H15.9024H15.9407H15.979H16.0173H16.0557H16.094H16.1324H16.1708H16.2092H16.2476H16.2861H16.3245H16.363H16.4015H16.44H16.4786H16.5171H16.5557H16.5943H16.6329H16.6715H16.7102H16.7489H16.7875H16.8263H16.865H16.9038H16.9425H16.9813H17.0202H17.059H17.0979H17.1368H17.1757H17.2146H17.2536H17.2926H17.3316H17.3707H17.4097H17.4488H17.4879H17.5271H17.5663H17.6055H17.6447H17.684H17.7232H17.7626H17.8019H17.8413H17.8807H17.9201H17.9596H17.9991H18.0386H18.0781H18.1177H18.1573H18.197H18.2366H18.2763H18.3161H18.3559H18.3957H18.4355H18.4754H18.5153H18.5552H18.5952H18.6352H18.6752H18.7153H18.7554H18.7956H18.8358H18.876H18.9163H18.9566H18.9969H19.0373H19.0777H19.1181H19.1586H19.1992H19.2397H19.2803H19.321H19.3616H19.4024H19.4431H19.4839H19.5248H19.5657H19.6066H19.6476H19.6886H19.7297H19.7708H19.8119H19.8531H19.8943H19.9356H19.9769H20.0183H20.0597H20.1011H20.1426H20.1842H20.2258H20.2674H20.3091H20.3508H20.3926H20.4344H20.4763H20.5182H20.5602H20.6022H20.6443H20.6864H20.7286H20.7708H20.8131H20.8554H20.8977H20.9402H20.9826H21.0252H21.0677H21.1104H21.153H21.1958H21.2386H21.2814H21.3243H21.3672H21.4102H21.4533H21.4964H21.5396H21.5828H21.6261H21.6694H21.7128H21.7562H21.7997H21.8433H21.8869H21.9306H21.9743H22.0181H22.062H22.1059H22.1498H22.1939H22.2379H22.2821H22.3263H22.3706H22.4149H22.4593H22.5037H22.5483H22.5928H22.6375H22.6822H22.7269H22.7718H22.8167H22.8616H22.9066H22.9517H22.9969H23.0421H23.0873H23.1327H23.1781H23.2236H23.2691H23.3147H23.3604H23.4062H23.452H23.4978H23.5438H23.5898H23.6359H23.6821H23.7283H23.7746H23.8209H23.8674H23.9139H23.9604H24.0071H24.0538H24.1006H24.1475H24.1944H24.2414H24.2885H24.2973C24.5097 26.9457 24.7668 25.6805 24.7491 24.3417C24.7295 22.8479 24.372 21.421 23.41 20.3863C22.8928 19.8299 21.7231 19.2632 19.9349 18.852C18.2086 18.4551 16.1169 18.25 14 18.25C11.8831 18.25 9.79144 18.4552 8.06519 18.852ZM6.01001 22.525H6.59001V24H6.91501V22.525H7.49501V22.25H6.01001V22.525ZM8.87141 22.7975C8.76975 22.6992 8.63475 22.65 8.46641 22.65C8.37308 22.65 8.28808 22.665 8.21141 22.695C8.13641 22.7233 8.07308 22.765 8.02141 22.82V22.145H7.70891V24H8.02141V23.325C8.02141 23.195 8.05475 23.0958 8.12141 23.0275C8.18808 22.9575 8.27891 22.9225 8.39391 22.9225C8.49558 22.9225 8.57391 22.9525 8.62891 23.0125C8.68391 23.0708 8.71141 23.1583 8.71141 23.275V24H9.02391V23.235C9.02391 23.0417 8.97308 22.8958 8.87141 22.7975ZM10.6825 23.4325C10.6859 23.3925 10.6875 23.3617 10.6875 23.34C10.6875 23.2033 10.6584 23.0833 10.6 22.98C10.5434 22.875 10.4634 22.7942 10.36 22.7375C10.2584 22.6792 10.1425 22.65 10.0125 22.65C9.88088 22.65 9.76255 22.6792 9.65755 22.7375C9.55255 22.7958 9.47005 22.8775 9.41005 22.9825C9.35171 23.0858 9.32255 23.2025 9.32255 23.3325C9.32255 23.4642 9.35255 23.5825 9.41255 23.6875C9.47421 23.7908 9.56088 23.8717 9.67255 23.93C9.78421 23.9883 9.91338 24.0175 10.06 24.0175C10.175 24.0175 10.2784 23.9992 10.37 23.9625C10.4617 23.9258 10.5375 23.8717 10.5975 23.8L10.43 23.6075C10.335 23.7042 10.2142 23.7525 10.0675 23.7525C9.95255 23.7525 9.85588 23.7242 9.77755 23.6675C9.70088 23.6092 9.65338 23.5308 9.63505 23.4325H10.6825ZM9.75755 22.99C9.82755 22.93 9.91255 22.9 10.0125 22.9C10.1142 22.9 10.1992 22.93 10.2675 22.99C10.3359 23.05 10.3767 23.1283 10.39 23.225H9.63255C9.64755 23.1267 9.68921 23.0483 9.75755 22.99ZM11.8586 23.9675C11.9853 24.0058 12.1161 24.025 12.2511 24.025C12.4045 24.025 12.5345 24.0017 12.6411 23.955C12.7478 23.9083 12.827 23.8458 12.8786 23.7675C12.932 23.6892 12.9586 23.6017 12.9586 23.505C12.9586 23.3917 12.9286 23.3017 12.8686 23.235C12.8103 23.1683 12.7395 23.1192 12.6561 23.0875C12.5728 23.0542 12.4661 23.0225 12.3361 22.9925C12.2411 22.9692 12.1661 22.9483 12.1111 22.93C12.0561 22.9117 12.0103 22.8867 11.9736 22.855C11.9386 22.8233 11.9211 22.7825 11.9211 22.7325C11.9211 22.6608 11.952 22.6033 12.0136 22.56C12.077 22.5167 12.1728 22.495 12.3011 22.495C12.3795 22.495 12.4603 22.5067 12.5436 22.53C12.627 22.5533 12.707 22.5875 12.7836 22.6325L12.8861 22.38C12.8111 22.33 12.722 22.2917 12.6186 22.265C12.5153 22.2383 12.4103 22.225 12.3036 22.225C12.1503 22.225 12.0203 22.2483 11.9136 22.295C11.8086 22.3417 11.7295 22.405 11.6761 22.485C11.6245 22.5633 11.5986 22.6508 11.5986 22.7475C11.5986 22.8625 11.6278 22.9542 11.6861 23.0225C11.7461 23.0892 11.817 23.1383 11.8986 23.17C11.982 23.2017 12.0903 23.2333 12.2236 23.265C12.3186 23.2883 12.3936 23.3092 12.4486 23.3275C12.5036 23.3458 12.5486 23.3717 12.5836 23.405C12.6203 23.4367 12.6386 23.4775 12.6386 23.5275C12.6386 23.5958 12.6061 23.6508 12.5411 23.6925C12.4778 23.7342 12.3811 23.755 12.2511 23.755C12.1461 23.755 12.0411 23.7375 11.9361 23.7025C11.8328 23.6658 11.7453 23.6192 11.6736 23.5625L11.5611 23.815C11.6345 23.8783 11.7336 23.9292 11.8586 23.9675ZM14.2109 22.7925C14.1076 22.6975 13.9576 22.65 13.7609 22.65C13.6509 22.65 13.5467 22.6642 13.4484 22.6925C13.3501 22.7208 13.2659 22.7617 13.1959 22.815L13.3184 23.0425C13.3684 23.0008 13.4292 22.9683 13.5009 22.945C13.5742 22.9217 13.6484 22.91 13.7234 22.91C13.8334 22.91 13.9159 22.935 13.9709 22.985C14.0276 23.035 14.0559 23.1067 14.0559 23.2V23.22H13.7109C13.5192 23.22 13.3784 23.2567 13.2884 23.33C13.2001 23.4017 13.1559 23.4975 13.1559 23.6175C13.1559 23.6942 13.1759 23.7633 13.2159 23.825C13.2576 23.885 13.3159 23.9325 13.3909 23.9675C13.4659 24.0008 13.5534 24.0175 13.6534 24.0175C13.7534 24.0175 13.8384 24.0025 13.9084 23.9725C13.9801 23.9408 14.0351 23.8958 14.0734 23.8375V24H14.3684V23.2175C14.3684 23.0275 14.3159 22.8858 14.2109 22.7925ZM13.9259 23.7375C13.8659 23.7725 13.7967 23.79 13.7184 23.79C13.6384 23.79 13.5759 23.7733 13.5309 23.74C13.4859 23.7067 13.4634 23.6617 13.4634 23.605C13.4634 23.4867 13.5534 23.4275 13.7334 23.4275H14.0559V23.5825C14.0309 23.6492 13.9876 23.7008 13.9259 23.7375ZM15.857 22.735C15.7553 22.6783 15.6395 22.65 15.5095 22.65C15.4178 22.65 15.3336 22.6658 15.257 22.6975C15.182 22.7292 15.1186 22.7767 15.067 22.84V22.665H14.7695V24.485H15.082V23.8375C15.187 23.9575 15.3295 24.0175 15.5095 24.0175C15.6395 24.0175 15.7553 23.9892 15.857 23.9325C15.9603 23.8758 16.0411 23.7958 16.0995 23.6925C16.1578 23.5875 16.187 23.4675 16.187 23.3325C16.187 23.1975 16.1578 23.0783 16.0995 22.975C16.0411 22.8717 15.9603 22.7917 15.857 22.735ZM15.757 23.635C15.6836 23.7117 15.5895 23.75 15.4745 23.75C15.3995 23.75 15.332 23.7333 15.272 23.7C15.212 23.665 15.1645 23.6158 15.1295 23.5525C15.0945 23.4892 15.077 23.4158 15.077 23.3325C15.077 23.2492 15.0945 23.1758 15.1295 23.1125C15.1645 23.0492 15.212 23.0008 15.272 22.9675C15.332 22.9325 15.3995 22.915 15.4745 22.915C15.5895 22.915 15.6836 22.9533 15.757 23.03C15.832 23.1067 15.8695 23.2075 15.8695 23.3325C15.8695 23.4575 15.832 23.5583 15.757 23.635ZM16.7958 22.665H16.4833V24H16.7958V22.665ZM16.4983 22.3925C16.5367 22.4275 16.5842 22.445 16.6408 22.445C16.6992 22.445 16.7467 22.4267 16.7833 22.39C16.8217 22.3517 16.8408 22.305 16.8408 22.25C16.8408 22.1983 16.8217 22.1558 16.7833 22.1225C16.745 22.0875 16.6975 22.07 16.6408 22.07C16.5842 22.07 16.5367 22.0883 16.4983 22.125C16.46 22.16 16.4408 22.2042 16.4408 22.2575C16.4408 22.3108 16.46 22.3558 16.4983 22.3925ZM18.456 23.4325C18.4593 23.3925 18.461 23.3617 18.461 23.34C18.461 23.2033 18.4318 23.0833 18.3735 22.98C18.3168 22.875 18.2368 22.7942 18.1335 22.7375C18.0318 22.6792 17.916 22.65 17.786 22.65C17.6543 22.65 17.536 22.6792 17.431 22.7375C17.326 22.7958 17.2435 22.8775 17.1835 22.9825C17.1252 23.0858 17.096 23.2025 17.096 23.3325C17.096 23.4642 17.126 23.5825 17.186 23.6875C17.2477 23.7908 17.3343 23.8717 17.446 23.93C17.5576 23.9883 17.6868 24.0175 17.8335 24.0175C17.9485 24.0175 18.0518 23.9992 18.1435 23.9625C18.2351 23.9258 18.311 23.8717 18.371 23.8L18.2035 23.6075C18.1085 23.7042 17.9876 23.7525 17.841 23.7525C17.726 23.7525 17.6293 23.7242 17.551 23.6675C17.4743 23.6092 17.4268 23.5308 17.4085 23.4325H18.456ZM17.531 22.99C17.601 22.93 17.686 22.9 17.786 22.9C17.8876 22.9 17.9727 22.93 18.041 22.99C18.1093 23.05 18.1502 23.1283 18.1635 23.225H17.406C17.421 23.1267 17.4627 23.0483 17.531 22.99ZM19.9237 22.7975C19.822 22.6992 19.687 22.65 19.5187 22.65C19.4203 22.65 19.332 22.6658 19.2537 22.6975C19.1753 22.7292 19.1103 22.7758 19.0587 22.8375V22.665H18.7612V24H19.0737V23.325C19.0737 23.195 19.107 23.0958 19.1737 23.0275C19.2403 22.9575 19.3312 22.9225 19.4462 22.9225C19.5478 22.9225 19.6262 22.9525 19.6812 23.0125C19.7362 23.0708 19.7637 23.1583 19.7637 23.275V24H20.0762V23.235C20.0762 23.0417 20.0253 22.8958 19.9237 22.7975ZM20.5676 23.975C20.6709 24.0033 20.7768 24.0175 20.8851 24.0175C21.0718 24.0175 21.2193 23.98 21.3276 23.905C21.4359 23.83 21.4901 23.73 21.4901 23.605C21.4901 23.51 21.4651 23.4367 21.4151 23.385C21.3668 23.3333 21.3084 23.2967 21.2401 23.275C21.1718 23.2533 21.0843 23.2342 20.9776 23.2175C20.8709 23.1992 20.7918 23.18 20.7401 23.16C20.6901 23.1383 20.6651 23.1025 20.6651 23.0525C20.6651 23.0075 20.6884 22.9717 20.7351 22.945C20.7834 22.9167 20.8534 22.9025 20.9451 22.9025C21.0868 22.9025 21.2143 22.9358 21.3276 23.0025L21.4476 22.765C21.3893 22.73 21.3143 22.7025 21.2226 22.6825C21.1309 22.6608 21.0393 22.65 20.9476 22.65C20.7676 22.65 20.6243 22.6883 20.5176 22.765C20.4126 22.84 20.3601 22.9408 20.3601 23.0675C20.3601 23.1642 20.3851 23.24 20.4351 23.295C20.4868 23.3483 20.5468 23.3858 20.6151 23.4075C20.6851 23.4292 20.7751 23.4483 20.8851 23.465C20.9901 23.4817 21.0659 23.4992 21.1126 23.5175C21.1609 23.5358 21.1851 23.5683 21.1851 23.615C21.1851 23.7133 21.0918 23.7625 20.9051 23.7625C20.8234 23.7625 20.7401 23.7508 20.6551 23.7275C20.5718 23.7025 20.5001 23.67 20.4401 23.63L20.3201 23.8675C20.3818 23.9108 20.4643 23.9467 20.5676 23.975Z" fill="#515151"/>
</svg>
